<svg width="187" height="187" viewBox="0 0 187 187" fill="none" xmlns="http://www.w3.org/2000/svg">
<path d="M181.074 67.77C190.318 43.0009 188.714 22.6492 176.498 10.4624C160.579 -5.45502 129.406 -2.7565 95.1558 17.5412L93.4478 18.545L91.7399 17.5412C83.5651 12.7045 75.5211 8.79374 67.8027 5.92558C43.0311 -3.31717 22.6774 -1.71386 10.4893 10.5013C-5.4297 26.4188 -2.73091 57.5884 17.5688 91.835L18.5727 93.5428L17.5688 95.2505C12.7317 103.424 8.82049 111.468 5.92617 119.185C-3.31751 143.954 -1.71404 164.306 10.5024 176.493C17.3733 183.363 26.8909 186.87 38.7029 186.87C54.1919 186.87 72.5497 180.834 91.8442 169.414L93.5521 168.41L95.2601 169.414C103.435 174.251 111.479 178.161 119.197 181.055C129.745 184.992 139.523 187 148.296 187C160.043 187 169.522 183.467 176.497 176.519C192.416 160.601 189.717 129.432 169.417 95.1849L168.413 93.4771L169.417 91.7694C174.254 83.5954 178.166 75.5521 181.034 67.8345L181.074 67.77ZM24.7373 24.6461C27.8141 21.6085 32.508 20.0442 38.8181 20.0442C45.1283 20.0442 52.7423 21.6476 60.8779 24.6853C63.681 25.7152 66.7188 27.0579 70.4214 28.8177L75.1932 31.0861L71.0862 34.4234C64.4759 39.7684 57.9964 45.6088 51.8554 51.7489C45.7535 57.8501 39.9388 64.329 34.5673 71.0037L31.2297 75.1361L28.9611 70.3649C19.0132 49.5457 17.4097 32.0244 24.7498 24.674L24.7373 24.6461ZM70.4328 158.073C58.2815 163.874 47.2385 166.846 38.686 166.846C32.5842 166.846 27.7735 165.347 24.6965 162.271C18.5557 156.13 18.5946 142.651 24.7616 126.161C25.8308 123.319 27.1345 120.281 28.8945 116.618L31.1631 111.847L34.5007 115.953C39.8463 122.524 45.648 129.003 51.828 135.182C57.9298 141.283 64.4093 147.098 71.0847 152.469L75.2175 155.806L70.4458 158.074L70.4328 158.073ZM93.5356 144.359L91.5669 142.925C82.6231 136.419 74.0049 129.041 65.9998 121.036C57.9165 112.954 50.55 104.35 44.1094 95.4718L42.6753 93.5033L44.1094 91.5348C50.6154 82.5918 57.9947 73.9746 65.9998 65.9702C74.1485 57.8224 82.7533 50.4569 91.5669 44.0428L93.5356 42.6088L95.5043 44.0428C104.487 50.5871 113.092 57.9656 121.11 65.9702C129.194 74.0527 136.56 82.6569 143.001 91.5348L144.435 93.5033L143.001 95.4718C136.495 104.415 129.116 113.032 121.11 121.075C113.027 129.158 104.422 136.524 95.5433 142.963L93.5746 144.397L93.5356 144.359ZM162.361 162.284C159.284 165.36 154.421 166.886 148.241 166.886C142.061 166.886 134.526 165.347 126.246 162.244C123.443 161.215 120.406 159.872 116.703 158.112L111.931 155.844L116.038 152.506C122.583 147.239 129.05 141.399 135.269 135.181C141.371 129.08 147.212 122.601 152.557 115.926L155.895 111.794L158.163 116.565C168.111 137.384 169.715 154.905 162.375 162.256L162.361 162.284ZM162.322 60.7953C161.253 63.6373 159.949 66.6356 158.189 70.3378L155.921 75.1091L152.583 71.0025C147.237 64.3929 141.396 57.914 135.256 51.7736C129.154 45.6724 122.635 39.8321 115.999 34.4481L111.866 31.1108L116.638 28.8033C128.659 23.0673 139.637 20.0297 148.346 20.0297C154.487 20.0297 159.324 21.6332 162.335 24.6316C168.476 30.7718 168.437 44.2516 162.296 60.7694L162.322 60.7953Z" fill="url(#paint0_linear_62_137)"/>
<defs>
<linearGradient id="paint0_linear_62_137" x1="10.5" y1="10.5" x2="171" y2="181.5" gradientUnits="userSpaceOnUse">
<stop stopColor="#6366F1"/>
<stop offset="1" stopColor="#00D6B5"/>
</linearGradient>
</defs>
</svg>
